<svg xmlns="http://www.w3.org/2000/svg" viewBox="0 0 612 612">
  <defs/>
  <path d="M403.939 295.749l-78.814 78.833V172.125c0-10.557-8.568-19.125-19.125-19.125s-19.125 8.568-19.125 19.125v202.457l-78.814-78.814c-7.478-7.478-19.584-7.478-27.043 0-7.478 7.478-7.478 19.584 0 27.042L289.208 431c4.59 4.59 10.863 6.005 16.812 4.953 5.929 1.052 12.221-.382 16.811-4.953l108.19-108.19c7.478-7.478 7.478-19.583 0-27.042-7.498-7.478-19.604-7.478-27.082-.019zM306 0C137.012 0 0 136.992 0 306s137.012 306 306 306 306-137.012 306-306S475.008 0 306 0zm0 573.75C158.125 573.75 38.25 453.875 38.25 306S158.125 38.25 306 38.25 573.75 158.125 573.75 306 453.875 573.75 306 573.75z"/>
</svg>
