<svg xmlns="http://www.w3.org/2000/svg" viewBox="1 1 512 512">
  <defs/>
  <path d="M256 512C114.613 512 0 397.383 0 256S114.613 0 256 0s256 114.613 256 256c-.168 141.316-114.684 255.832-256 256zm0-480C132.29 32 32 132.29 32 256s100.29 224 224 224 224-100.29 224-224c-.133-123.656-100.344-223.867-224-224zm0 0"/>
  <path d="M208 368c-8.836 0-16-7.164-16-16V160c0-8.836 7.164-16 16-16s16 7.164 16 16v192c0 8.836-7.164 16-16 16zm0 0M304 368c-8.836 0-16-7.164-16-16V160c0-8.836 7.164-16 16-16s16 7.164 16 16v192c0 8.836-7.164 16-16 16zm0 0"/>
</svg>
