<svg xmlns="http://www.w3.org/2000/svg" viewBox="0 0 512 512" class="">
  <defs></defs>
  <circle cx="256" cy="256" r="256" fill="#4b50dd"></circle>
  <path fill="#f5f5f5" d="M192 64h176c4.4 0 8 3.6 8 8v328c0 4.4-3.6 8-8 8H120c-4.4 0-8-3.6-8-8V148l80-84z"></path>
  <path fill="#e6e6e6" d="M184 148c4.4 0 8-3.6 8-8V64l-80 84h72z"></path>
  <circle cx="352" cy="384" r="52" fill="#2179a6"></circle>
  <g fill="#f5f5f5" class="g">
    <path d="M352 416c-2.208 0-4-1.788-4-4v-56c0-2.212 1.792-4 4-4s4 1.788 4 4v56c0 2.212-1.792 4-4 4z"></path>
    <path d="M352 416a3.989 3.989 0 01-2.828-1.172l-20-20c-1.564-1.564-1.564-4.092 0-5.656s4.092-1.564 5.656 0L352 406.344l17.172-17.172c1.564-1.564 4.092-1.564 5.656 0s1.564 4.092 0 5.656l-20 20A3.989 3.989 0 01352 416z"></path>
  </g>
</svg>
